%TF.GenerationSoftware,KiCad,Pcbnew,(6.0.11)*%
%TF.CreationDate,2023-10-13T14:44:19+02:00*%
%TF.ProjectId,walter-feels,77616c74-6572-42d6-9665-656c732e6b69,2.1*%
%TF.SameCoordinates,Original*%
%TF.FileFunction,Profile,NP*%
%FSLAX46Y46*%
G04 Gerber Fmt 4.6, Leading zero omitted, Abs format (unit mm)*
G04 Created by KiCad (PCBNEW (6.0.11)) date 2023-10-13 14:44:19*
%MOMM*%
%LPD*%
G01*
G04 APERTURE LIST*
%TA.AperFunction,Profile*%
%ADD10C,0.100000*%
%TD*%
%TA.AperFunction,Profile*%
%ADD11C,0.150000*%
%TD*%
G04 APERTURE END LIST*
D10*
X104186070Y-146123000D02*
X104186070Y-150123000D01*
X103746729Y-145062341D02*
X101978962Y-143294574D01*
X95746700Y-150123000D02*
G75*
G03*
X96246730Y-150623000I500000J0D01*
G01*
X94746700Y-150123000D02*
G75*
G03*
X96246730Y-151623000I1500000J0D01*
G01*
X95893177Y-145769447D02*
X97660944Y-144001680D01*
X103186070Y-150123000D02*
X103186070Y-146123000D01*
X94746730Y-150123000D02*
X94746730Y-146123000D01*
X103039623Y-145769447D02*
X101271856Y-144001680D01*
X104186101Y-146123000D02*
G75*
G03*
X103746729Y-145062341I-1500401J-200D01*
G01*
X97660944Y-144001680D02*
G75*
G03*
X96953838Y-143294574I-353553J353553D01*
G01*
X102686070Y-150623070D02*
G75*
G03*
X103186070Y-150123000I-70J500070D01*
G01*
X102686070Y-151623070D02*
G75*
G03*
X104186070Y-150123000I-70J1500070D01*
G01*
D11*
X86500000Y-153500000D02*
X180500000Y-153500000D01*
X180500000Y-153500000D02*
X180500000Y-59500000D01*
X180500000Y-59500000D02*
X86500000Y-59500000D01*
X86500000Y-59500000D02*
X86500000Y-153500000D01*
D10*
X95186070Y-145062340D02*
X96953837Y-143294573D01*
X95746730Y-146123000D02*
X95746730Y-150123000D01*
X96246730Y-151623000D02*
X102686070Y-151623000D01*
X95186076Y-145062346D02*
G75*
G03*
X94746730Y-146123000I1060624J-1060654D01*
G01*
X101978962Y-143294574D02*
G75*
G03*
X101271856Y-144001680I-353553J-353553D01*
G01*
X95893183Y-145769453D02*
G75*
G03*
X95746730Y-146123000I353517J-353547D01*
G01*
X103186032Y-146123000D02*
G75*
G03*
X103039623Y-145769447I-500332J-100D01*
G01*
X96246730Y-150623000D02*
X102686070Y-150623000D01*
M02*
