%TF.GenerationSoftware,KiCad,Pcbnew,(6.0.11)*%
%TF.CreationDate,2025-02-12T10:18:37+01:00*%
%TF.ProjectId,walter-feels,77616c74-6572-42d6-9665-656c732e6b69,2.3*%
%TF.SameCoordinates,Original*%
%TF.FileFunction,Soldermask,Bot*%
%TF.FilePolarity,Negative*%
%FSLAX46Y46*%
G04 Gerber Fmt 4.6, Leading zero omitted, Abs format (unit mm)*
G04 Created by KiCad (PCBNEW (6.0.11)) date 2025-02-12 10:18:37*
%MOMM*%
%LPD*%
G01*
G04 APERTURE LIST*
%ADD10C,1.650000*%
%ADD11R,1.650000X1.650000*%
%ADD12R,1.700000X1.700000*%
%ADD13O,1.700000X1.700000*%
%ADD14R,1.500000X1.500000*%
%ADD15C,1.500000*%
%ADD16C,2.000000*%
%ADD17R,2.000000X2.000000*%
%ADD18C,3.500000*%
G04 APERTURE END LIST*
D10*
%TO.C,J3*%
X163014600Y-67146800D03*
D11*
X163014600Y-72146800D03*
D10*
X159514600Y-67146800D03*
X159514600Y-72146800D03*
%TD*%
D12*
%TO.C,J6*%
X104800000Y-137812500D03*
D13*
X104800000Y-135272500D03*
X104800000Y-132732500D03*
X104800000Y-130192500D03*
%TD*%
D14*
%TO.C,U10*%
X146282200Y-133213800D03*
D15*
X148822200Y-133213800D03*
X151362200Y-133213800D03*
X153902200Y-133213800D03*
X156442200Y-133213800D03*
X158982200Y-133213800D03*
X161522200Y-133213800D03*
%TD*%
%TO.C,J5*%
X126106600Y-143179800D03*
X128606600Y-138179800D03*
X131106600Y-143179800D03*
X133606600Y-138179800D03*
X136106600Y-143179800D03*
X138606600Y-138179800D03*
X141106600Y-143179800D03*
X143606600Y-138179800D03*
X146106600Y-143179800D03*
%TD*%
%TO.C,J4*%
X150342600Y-143179800D03*
X152842600Y-138179800D03*
X155342600Y-143179800D03*
X157842600Y-138179800D03*
X160342600Y-143179800D03*
X162842600Y-138179800D03*
X165342600Y-143179800D03*
X167842600Y-138179800D03*
X170342600Y-143179800D03*
%TD*%
D11*
%TO.C,J2*%
X107566400Y-72146800D03*
D10*
X107566400Y-67146800D03*
X104066400Y-72146800D03*
X104066400Y-67146800D03*
%TD*%
D16*
%TO.C,U1*%
X132105600Y-98679000D03*
X129565600Y-98679000D03*
X127025600Y-98679000D03*
X124485600Y-98679000D03*
X121945600Y-98679000D03*
X119405600Y-98679000D03*
X116865600Y-98679000D03*
X114325600Y-98679000D03*
X111785600Y-98679000D03*
X109245600Y-98679000D03*
X106705600Y-98679000D03*
X104165600Y-98679000D03*
X101625600Y-98679000D03*
X99085600Y-98679000D03*
X99085600Y-116459000D03*
X101625600Y-116459000D03*
X104165600Y-116459000D03*
X106705600Y-116459000D03*
X109245600Y-116459000D03*
X111785600Y-116459000D03*
X114325600Y-116459000D03*
X116865600Y-116459000D03*
X119405600Y-116459000D03*
X121945600Y-116459000D03*
X124485600Y-116459000D03*
X127025600Y-116459000D03*
X129565600Y-116459000D03*
D17*
X132105600Y-116459000D03*
%TD*%
D18*
%TO.C,H2*%
X177000000Y-63000000D03*
%TD*%
%TO.C,H1*%
X90000000Y-63000000D03*
%TD*%
%TO.C,H4*%
X90000000Y-150000000D03*
%TD*%
%TO.C,H3*%
X177000000Y-150000000D03*
%TD*%
M02*
