%TF.GenerationSoftware,KiCad,Pcbnew,(6.0.11)*%
%TF.CreationDate,2023-10-13T14:44:18+02:00*%
%TF.ProjectId,walter-feels,77616c74-6572-42d6-9665-656c732e6b69,2.1*%
%TF.SameCoordinates,Original*%
%TF.FileFunction,Paste,Top*%
%TF.FilePolarity,Positive*%
%FSLAX46Y46*%
G04 Gerber Fmt 4.6, Leading zero omitted, Abs format (unit mm)*
G04 Created by KiCad (PCBNEW (6.0.11)) date 2023-10-13 14:44:18*
%MOMM*%
%LPD*%
G01*
G04 APERTURE LIST*
G04 Aperture macros list*
%AMRoundRect*
0 Rectangle with rounded corners*
0 $1 Rounding radius*
0 $2 $3 $4 $5 $6 $7 $8 $9 X,Y pos of 4 corners*
0 Add a 4 corners polygon primitive as box body*
4,1,4,$2,$3,$4,$5,$6,$7,$8,$9,$2,$3,0*
0 Add four circle primitives for the rounded corners*
1,1,$1+$1,$2,$3*
1,1,$1+$1,$4,$5*
1,1,$1+$1,$6,$7*
1,1,$1+$1,$8,$9*
0 Add four rect primitives between the rounded corners*
20,1,$1+$1,$2,$3,$4,$5,0*
20,1,$1+$1,$4,$5,$6,$7,0*
20,1,$1+$1,$6,$7,$8,$9,0*
20,1,$1+$1,$8,$9,$2,$3,0*%
%AMFreePoly0*
4,1,30,2.050035,0.200035,2.050050,0.200000,2.050050,-0.190000,2.050035,-0.190035,2.050000,-0.190050,1.700050,-0.190050,1.700050,-0.459950,2.030000,-0.459950,2.030035,-0.459965,2.030050,-0.460000,2.030050,-0.850000,2.030035,-0.850035,2.030000,-0.850050,-0.250000,-0.850050,-0.250035,-0.850035,-0.250050,-0.850000,-0.250050,-0.460000,-0.250035,-0.459965,-0.250000,-0.459950,0.099950,-0.459950,
0.099950,-0.200000,-0.250000,-0.200000,-0.250000,-0.190050,-0.250035,-0.190035,-0.250050,-0.190000,-0.250050,0.200000,-0.250035,0.200035,-0.250000,0.200050,2.050000,0.200050,2.050035,0.200035,2.050035,0.200035,$1*%
G04 Aperture macros list end*
%ADD10C,0.010000*%
%ADD11R,0.347536X0.376682*%
%ADD12R,0.376682X0.347536*%
%ADD13RoundRect,0.225000X0.250000X-0.225000X0.250000X0.225000X-0.250000X0.225000X-0.250000X-0.225000X0*%
%ADD14R,0.405000X0.990000*%
%ADD15R,0.405000X0.760000*%
%ADD16R,2.235000X1.725000*%
%ADD17R,1.150000X0.350000*%
%ADD18R,1.150000X2.700000*%
%ADD19RoundRect,0.250000X0.650000X-0.325000X0.650000X0.325000X-0.650000X0.325000X-0.650000X-0.325000X0*%
%ADD20RoundRect,0.225000X0.225000X0.250000X-0.225000X0.250000X-0.225000X-0.250000X0.225000X-0.250000X0*%
%ADD21RoundRect,0.225000X-0.225000X-0.250000X0.225000X-0.250000X0.225000X0.250000X-0.225000X0.250000X0*%
%ADD22RoundRect,0.250000X0.325000X0.650000X-0.325000X0.650000X-0.325000X-0.650000X0.325000X-0.650000X0*%
%ADD23RoundRect,0.250000X1.100000X-0.325000X1.100000X0.325000X-1.100000X0.325000X-1.100000X-0.325000X0*%
%ADD24R,0.300000X0.850000*%
%ADD25R,0.850000X0.300000*%
%ADD26R,3.650000X2.650000*%
%ADD27RoundRect,0.225000X-0.250000X0.225000X-0.250000X-0.225000X0.250000X-0.225000X0.250000X0.225000X0*%
%ADD28RoundRect,0.075000X0.237500X0.075000X-0.237500X0.075000X-0.237500X-0.075000X0.237500X-0.075000X0*%
%ADD29RoundRect,0.075000X0.075000X0.237500X-0.075000X0.237500X-0.075000X-0.237500X0.075000X-0.237500X0*%
%ADD30R,0.800001X0.900001*%
%ADD31RoundRect,0.200000X-0.200000X-0.275000X0.200000X-0.275000X0.200000X0.275000X-0.200000X0.275000X0*%
%ADD32R,1.000000X0.599999*%
%ADD33RoundRect,0.250000X-0.325000X-0.650000X0.325000X-0.650000X0.325000X0.650000X-0.325000X0.650000X0*%
%ADD34RoundRect,0.250000X-0.325000X-1.100000X0.325000X-1.100000X0.325000X1.100000X-0.325000X1.100000X0*%
%ADD35RoundRect,0.250000X-0.650000X0.325000X-0.650000X-0.325000X0.650000X-0.325000X0.650000X0.325000X0*%
%ADD36R,0.750000X0.300000*%
%ADD37R,0.900000X1.300000*%
%ADD38R,0.520000X0.450000*%
%ADD39R,0.520000X0.583000*%
%ADD40R,0.750000X2.520000*%
%ADD41RoundRect,0.200000X0.200000X0.275000X-0.200000X0.275000X-0.200000X-0.275000X0.200000X-0.275000X0*%
%ADD42R,0.530000X1.330000*%
%ADD43RoundRect,0.200000X-0.275000X0.200000X-0.275000X-0.200000X0.275000X-0.200000X0.275000X0.200000X0*%
%ADD44RoundRect,0.200000X0.275000X-0.200000X0.275000X0.200000X-0.275000X0.200000X-0.275000X-0.200000X0*%
%ADD45FreePoly0,180.000000*%
%ADD46R,0.500000X0.400000*%
%ADD47R,0.920000X0.285000*%
%ADD48R,3.750000X12.100000*%
%ADD49R,1.475000X0.450000*%
%ADD50RoundRect,0.250000X0.325000X1.100000X-0.325000X1.100000X-0.325000X-1.100000X0.325000X-1.100000X0*%
%ADD51R,3.250000X5.250000*%
%ADD52R,4.750000X3.350000*%
%ADD53RoundRect,0.042000X-0.943000X-0.258000X0.943000X-0.258000X0.943000X0.258000X-0.943000X0.258000X0*%
%ADD54R,0.800000X1.500000*%
%ADD55R,1.450000X2.000000*%
%ADD56R,0.600000X0.700000*%
%ADD57R,0.400000X0.700000*%
%ADD58RoundRect,0.250000X-1.100000X0.325000X-1.100000X-0.325000X1.100000X-0.325000X1.100000X0.325000X0*%
%ADD59R,0.200000X0.600000*%
%ADD60R,2.900000X0.500000*%
%ADD61R,0.700000X0.420000*%
%ADD62R,0.450000X0.420000*%
%ADD63R,1.700000X2.370000*%
%ADD64R,0.600000X0.400000*%
%ADD65R,1.500000X2.400000*%
%ADD66R,2.400000X1.800000*%
G04 APERTURE END LIST*
%TO.C,Q5*%
G36*
X144560275Y-131344997D02*
G01*
X143640000Y-131344997D01*
X143640000Y-130604972D01*
X144560275Y-130604972D01*
X144560275Y-131344997D01*
G37*
D10*
X144560275Y-131344997D02*
X143640000Y-131344997D01*
X143640000Y-130604972D01*
X144560275Y-130604972D01*
X144560275Y-131344997D01*
%TD*%
D11*
%TO.C,U8*%
X99144200Y-137330701D03*
X99644200Y-137330701D03*
D12*
X100221900Y-137003000D03*
X100221900Y-136503001D03*
X100221900Y-136003002D03*
D11*
X99644200Y-135675301D03*
X99144200Y-135675301D03*
D12*
X98566500Y-136003002D03*
X98566500Y-136503001D03*
X98566500Y-137003000D03*
%TD*%
D13*
%TO.C,C20*%
X121217974Y-77180600D03*
X121217974Y-75630600D03*
%TD*%
D14*
%TO.C,Q3*%
X142426374Y-72168700D03*
X141766374Y-72168700D03*
X141106374Y-72168700D03*
X140446374Y-72168700D03*
D15*
X140446374Y-75153700D03*
X141106374Y-75153700D03*
X141766374Y-75153700D03*
X142426374Y-75153700D03*
D16*
X141436374Y-74161200D03*
%TD*%
D17*
%TO.C,R14*%
X149627574Y-74979400D03*
D18*
X149627574Y-76804400D03*
X151177574Y-76804400D03*
D17*
X151177574Y-74979400D03*
%TD*%
D19*
%TO.C,C24*%
X155473400Y-76100200D03*
X155473400Y-73150200D03*
%TD*%
D20*
%TO.C,C43*%
X141382600Y-129362200D03*
X139832600Y-129362200D03*
%TD*%
D21*
%TO.C,C52*%
X146282201Y-131292600D03*
X147832201Y-131292600D03*
%TD*%
D22*
%TO.C,C56*%
X167438600Y-79933800D03*
X164488600Y-79933800D03*
%TD*%
D23*
%TO.C,C1*%
X135690000Y-116459000D03*
X135690000Y-113509000D03*
%TD*%
D24*
%TO.C,U11*%
X167617200Y-90189600D03*
X168117200Y-90189600D03*
X168617200Y-90189600D03*
X169117200Y-90189600D03*
X169617200Y-90189600D03*
X170117200Y-90189600D03*
X170617200Y-90189600D03*
X171117200Y-90189600D03*
D25*
X171817200Y-89489600D03*
X171817200Y-88989600D03*
X171817200Y-88489600D03*
X171817200Y-87989600D03*
X171817200Y-87489600D03*
X171817200Y-86989600D03*
D24*
X171117200Y-86289600D03*
X170617200Y-86289600D03*
X170117200Y-86289600D03*
X169617200Y-86289600D03*
X169117200Y-86289600D03*
X168617200Y-86289600D03*
X168117200Y-86289600D03*
X167617200Y-86289600D03*
D25*
X166917200Y-86989600D03*
X166917200Y-87489600D03*
X166917200Y-87989600D03*
X166917200Y-88489600D03*
X166917200Y-88989600D03*
X166917200Y-89489600D03*
D26*
X169367200Y-88239600D03*
%TD*%
D27*
%TO.C,C45*%
X136982201Y-125934700D03*
X136982201Y-127484700D03*
%TD*%
D28*
%TO.C,U9*%
X101187700Y-132322000D03*
X101187700Y-131822000D03*
X101187700Y-131322000D03*
X101187700Y-130822000D03*
D29*
X100525200Y-130659500D03*
X100025200Y-130659500D03*
X99525200Y-130659500D03*
D28*
X98862700Y-130822000D03*
X98862700Y-131322000D03*
X98862700Y-131822000D03*
X98862700Y-132322000D03*
D29*
X99525200Y-132484500D03*
X100025200Y-132484500D03*
X100525200Y-132484500D03*
%TD*%
D23*
%TO.C,C2*%
X138960000Y-116459000D03*
X138960000Y-113509000D03*
%TD*%
D20*
%TO.C,C64*%
X155711400Y-104394902D03*
X154161400Y-104394902D03*
%TD*%
D30*
%TO.C,D2*%
X140751601Y-121758199D03*
X138851602Y-121758199D03*
X139801601Y-123758201D03*
%TD*%
D27*
%TO.C,C67*%
X173202600Y-89369600D03*
X173202600Y-90919600D03*
%TD*%
D20*
%TO.C,C7*%
X117821374Y-87579200D03*
X116271374Y-87579200D03*
%TD*%
D21*
%TO.C,C16*%
X121001774Y-82905600D03*
X122551774Y-82905600D03*
%TD*%
D31*
%TO.C,R1*%
X99454200Y-94056200D03*
X101104200Y-94056200D03*
%TD*%
D21*
%TO.C,C42*%
X127622001Y-134886442D03*
X129172001Y-134886442D03*
%TD*%
D32*
%TO.C,U6*%
X132762399Y-125934699D03*
X132762399Y-126884700D03*
X132762399Y-127834698D03*
X135512399Y-127834698D03*
X135512399Y-125934699D03*
%TD*%
D20*
%TO.C,C50*%
X100520800Y-129260600D03*
X98970800Y-129260600D03*
%TD*%
D19*
%TO.C,C27*%
X138921774Y-70105800D03*
X138921774Y-67155800D03*
%TD*%
D20*
%TO.C,C13*%
X123186774Y-81330800D03*
X121636774Y-81330800D03*
%TD*%
D33*
%TO.C,C53*%
X169162200Y-79933800D03*
X172112200Y-79933800D03*
%TD*%
D34*
%TO.C,C73*%
X167511200Y-106883200D03*
X170461200Y-106883200D03*
%TD*%
D35*
%TO.C,C30*%
X146846574Y-70127600D03*
X146846574Y-73077600D03*
%TD*%
D21*
%TO.C,C61*%
X168516000Y-83870800D03*
X170066000Y-83870800D03*
%TD*%
D19*
%TO.C,C23*%
X141283974Y-70105800D03*
X141283974Y-67155800D03*
%TD*%
D36*
%TO.C,U12*%
X155711400Y-102543202D03*
X155711400Y-102043202D03*
X155711400Y-101543202D03*
X155711400Y-101043202D03*
X153711400Y-101043202D03*
X153711400Y-101543202D03*
X153711400Y-102043202D03*
X153711400Y-102543202D03*
D37*
X154711400Y-101793202D03*
%TD*%
D31*
%TO.C,R24*%
X149847800Y-99543502D03*
X151497800Y-99543502D03*
%TD*%
D21*
%TO.C,C12*%
X118156974Y-74955400D03*
X119706974Y-74955400D03*
%TD*%
D20*
%TO.C,C41*%
X129172000Y-128130042D03*
X127622000Y-128130042D03*
%TD*%
D22*
%TO.C,C5*%
X115936574Y-73710800D03*
X112986574Y-73710800D03*
%TD*%
D38*
%TO.C,Q1*%
X137898774Y-75066800D03*
D39*
X137898774Y-74349800D03*
X137898774Y-73766800D03*
X137898774Y-73183800D03*
X135118774Y-73183800D03*
X135118774Y-73766800D03*
X135118774Y-74349800D03*
D38*
X135118774Y-75066800D03*
D40*
X135958774Y-74091800D03*
X137058774Y-74091800D03*
%TD*%
D41*
%TO.C,R10*%
X112822774Y-82219800D03*
X111172774Y-82219800D03*
%TD*%
D42*
%TO.C,U3*%
X119126000Y-131801600D03*
X120396000Y-131801600D03*
X121666000Y-131801600D03*
X121666000Y-128751600D03*
X120396000Y-128751600D03*
X119126000Y-128751600D03*
%TD*%
D35*
%TO.C,C26*%
X126221774Y-71829400D03*
X126221774Y-74779400D03*
%TD*%
%TO.C,C29*%
X128583974Y-71829400D03*
X128583974Y-74779400D03*
%TD*%
D43*
%TO.C,R3*%
X106739974Y-78969600D03*
X106739974Y-80619600D03*
%TD*%
D44*
%TO.C,R27*%
X172872400Y-94017600D03*
X172872400Y-92367600D03*
%TD*%
D45*
%TO.C,Q5*%
X145000000Y-131300000D03*
D46*
X145000000Y-130650000D03*
X145000000Y-130000000D03*
X143200000Y-130000000D03*
X143200000Y-130650000D03*
X143200000Y-131300000D03*
D47*
X144100000Y-130000000D03*
%TD*%
D27*
%TO.C,C3*%
X105215974Y-79069600D03*
X105215974Y-80619600D03*
%TD*%
%TO.C,C51*%
X97434400Y-130822400D03*
X97434400Y-132372400D03*
%TD*%
D34*
%TO.C,C75*%
X167511200Y-100330000D03*
X170461200Y-100330000D03*
%TD*%
D44*
%TO.C,R16*%
X119126000Y-127190000D03*
X119126000Y-125540000D03*
%TD*%
D35*
%TO.C,C35*%
X133308374Y-71829400D03*
X133308374Y-74779400D03*
%TD*%
D19*
%TO.C,C28*%
X127110774Y-70105800D03*
X127110774Y-67155800D03*
%TD*%
D20*
%TO.C,C15*%
X120845000Y-85430000D03*
X119295000Y-85430000D03*
%TD*%
D48*
%TO.C,L1*%
X131883774Y-84455000D03*
X147483774Y-84455000D03*
%TD*%
D41*
%TO.C,R6*%
X108797374Y-85191600D03*
X107147374Y-85191600D03*
%TD*%
D13*
%TO.C,C48*%
X97327600Y-135453000D03*
X97327600Y-137003000D03*
%TD*%
D35*
%TO.C,C62*%
X155905200Y-106018702D03*
X155905200Y-108968702D03*
%TD*%
D31*
%TO.C,R21*%
X142151600Y-125943398D03*
X143801600Y-125943398D03*
%TD*%
D49*
%TO.C,U2*%
X126221000Y-129220800D03*
X126221000Y-129870800D03*
X126221000Y-130520800D03*
X126221000Y-131170800D03*
X126221000Y-131820800D03*
X126221000Y-132470800D03*
X126221000Y-133120800D03*
X126221000Y-133770800D03*
X132097000Y-133770800D03*
X132097000Y-133120800D03*
X132097000Y-132470800D03*
X132097000Y-131820800D03*
X132097000Y-131170800D03*
X132097000Y-130520800D03*
X132097000Y-129870800D03*
X132097000Y-129220800D03*
%TD*%
D21*
%TO.C,C59*%
X171538600Y-83870800D03*
X173088600Y-83870800D03*
%TD*%
D19*
%TO.C,C33*%
X136559574Y-70105800D03*
X136559574Y-67155800D03*
%TD*%
D50*
%TO.C,C76*%
X166600400Y-97028000D03*
X163650400Y-97028000D03*
%TD*%
D13*
%TO.C,C63*%
X165531800Y-87489600D03*
X165531800Y-85939600D03*
%TD*%
D27*
%TO.C,C22*%
X124265974Y-73342200D03*
X124265974Y-74892200D03*
%TD*%
D43*
%TO.C,R20*%
X142189201Y-122769398D03*
X142189201Y-124419398D03*
%TD*%
%TO.C,R26*%
X171348400Y-92366800D03*
X171348400Y-94016800D03*
%TD*%
D27*
%TO.C,C9*%
X108797374Y-82105200D03*
X108797374Y-83655200D03*
%TD*%
D19*
%TO.C,C34*%
X131835174Y-70105800D03*
X131835174Y-67155800D03*
%TD*%
D27*
%TO.C,C66*%
X165531800Y-88989600D03*
X165531800Y-90539600D03*
%TD*%
D21*
%TO.C,C17*%
X121814574Y-78790800D03*
X123364574Y-78790800D03*
%TD*%
D41*
%TO.C,R2*%
X104152200Y-94056200D03*
X102502200Y-94056200D03*
%TD*%
D21*
%TO.C,C69*%
X174713600Y-89369600D03*
X176263600Y-89369600D03*
%TD*%
D41*
%TO.C,R7*%
X117871374Y-86029800D03*
X116221374Y-86029800D03*
%TD*%
D25*
%TO.C,IC1*%
X114346374Y-76980600D03*
X114346374Y-77480600D03*
X114346374Y-77980600D03*
X114346374Y-78480600D03*
X114346374Y-78980600D03*
X114346374Y-79480600D03*
X114346374Y-79980600D03*
X114346374Y-80480600D03*
X114346374Y-80980600D03*
X114346374Y-81480600D03*
X114346374Y-81980600D03*
X114346374Y-82480600D03*
D24*
X115296374Y-83180600D03*
X115796374Y-83180600D03*
X116296374Y-83180600D03*
X116796374Y-83180600D03*
X117296374Y-83180600D03*
X117796374Y-83180600D03*
X118296374Y-83180600D03*
D25*
X119246374Y-82480600D03*
X119246374Y-81980600D03*
X119246374Y-81480600D03*
X119246374Y-80980600D03*
X119246374Y-80480600D03*
X119246374Y-79980600D03*
X119246374Y-79480600D03*
X119246374Y-78980600D03*
X119246374Y-78480600D03*
X119246374Y-77980600D03*
X119246374Y-77480600D03*
X119246374Y-76980600D03*
D24*
X118296374Y-76280600D03*
X117796374Y-76280600D03*
X117296374Y-76280600D03*
X116796374Y-76280600D03*
X116296374Y-76280600D03*
X115796374Y-76280600D03*
X115296374Y-76280600D03*
D51*
X116796374Y-79730600D03*
%TD*%
D44*
%TO.C,R4*%
X108263974Y-80619600D03*
X108263974Y-78969600D03*
%TD*%
D52*
%TO.C,L2*%
X158242000Y-82339600D03*
X158242000Y-94139600D03*
%TD*%
D53*
%TO.C,U4*%
X136442600Y-130786700D03*
X136442600Y-132056700D03*
X136442600Y-133326700D03*
X136442600Y-134596700D03*
X141382600Y-134596700D03*
X141382600Y-133326700D03*
X141382600Y-132056700D03*
X141382600Y-130786700D03*
%TD*%
D27*
%TO.C,C40*%
X133756400Y-129882600D03*
X133756400Y-131432600D03*
%TD*%
D19*
%TO.C,C31*%
X129472974Y-70105800D03*
X129472974Y-67155800D03*
%TD*%
D41*
%TO.C,R11*%
X113152974Y-83845400D03*
X111502974Y-83845400D03*
%TD*%
D43*
%TO.C,R18*%
X120674943Y-133388600D03*
X120674943Y-135038600D03*
%TD*%
D20*
%TO.C,C57*%
X167043400Y-83870800D03*
X165493400Y-83870800D03*
%TD*%
D27*
%TO.C,C39*%
X124460000Y-132231842D03*
X124460000Y-133781842D03*
%TD*%
%TO.C,C68*%
X169824400Y-92366800D03*
X169824400Y-93916800D03*
%TD*%
D31*
%TO.C,R23*%
X174663600Y-90919600D03*
X176313600Y-90919600D03*
%TD*%
%TO.C,R15*%
X115761001Y-130530600D03*
X117411001Y-130530600D03*
%TD*%
D22*
%TO.C,C11*%
X115936574Y-66624200D03*
X112986574Y-66624200D03*
%TD*%
D27*
%TO.C,C38*%
X124460000Y-129209242D03*
X124460000Y-130759242D03*
%TD*%
D35*
%TO.C,C32*%
X130946174Y-71829400D03*
X130946174Y-74779400D03*
%TD*%
D21*
%TO.C,C19*%
X121204974Y-74117200D03*
X122754974Y-74117200D03*
%TD*%
D13*
%TO.C,C44*%
X136982200Y-122517199D03*
X136982200Y-120967199D03*
%TD*%
D20*
%TO.C,C4*%
X111375774Y-79095600D03*
X109825774Y-79095600D03*
%TD*%
D27*
%TO.C,C65*%
X166598600Y-92011200D03*
X166598600Y-93561200D03*
%TD*%
D32*
%TO.C,U5*%
X132762399Y-122519399D03*
X132762399Y-123469400D03*
X132762399Y-124419398D03*
X135512399Y-124419398D03*
X135512399Y-122519399D03*
%TD*%
D13*
%TO.C,C14*%
X114766374Y-86347600D03*
X114766374Y-84797600D03*
%TD*%
D19*
%TO.C,C37*%
X134197374Y-70105800D03*
X134197374Y-67155800D03*
%TD*%
D31*
%TO.C,R5*%
X109724974Y-80619600D03*
X111374974Y-80619600D03*
%TD*%
D35*
%TO.C,C70*%
X151917400Y-102437302D03*
X151917400Y-105387302D03*
%TD*%
D54*
%TO.C,J1*%
X115449200Y-149047900D03*
X114349200Y-149047900D03*
X113249200Y-149047900D03*
X112149200Y-149047900D03*
X111049200Y-149047900D03*
X109949200Y-149047900D03*
X108849200Y-149047900D03*
X107749200Y-149047900D03*
D55*
X119124200Y-151647900D03*
X105374200Y-151647900D03*
X119124200Y-143347900D03*
X105374200Y-143347900D03*
%TD*%
D56*
%TO.C,Q4*%
X115724100Y-129193800D03*
X117624100Y-129193800D03*
X116674100Y-127193800D03*
%TD*%
D13*
%TO.C,C46*%
X143738600Y-124419398D03*
X143738600Y-122869398D03*
%TD*%
D57*
%TO.C,D1*%
X121965774Y-80060800D03*
X122665774Y-80060800D03*
%TD*%
D34*
%TO.C,C74*%
X167511200Y-103606600D03*
X170461200Y-103606600D03*
%TD*%
D43*
%TO.C,R8*%
X113242374Y-85458800D03*
X113242374Y-87108800D03*
%TD*%
D20*
%TO.C,C49*%
X96405000Y-138560000D03*
X97955000Y-138560000D03*
%TD*%
D27*
%TO.C,C6*%
X107273374Y-82105200D03*
X107273374Y-83655200D03*
%TD*%
D31*
%TO.C,R19*%
X136919200Y-124419398D03*
X138569200Y-124419398D03*
%TD*%
D19*
%TO.C,C25*%
X124748574Y-70105800D03*
X124748574Y-67155800D03*
%TD*%
D58*
%TO.C,C58*%
X158724600Y-107339502D03*
X158724600Y-110289502D03*
%TD*%
D35*
%TO.C,C77*%
X116337800Y-135449500D03*
X116337800Y-138399500D03*
%TD*%
D22*
%TO.C,C10*%
X115936574Y-68986400D03*
X112986574Y-68986400D03*
%TD*%
D59*
%TO.C,U13*%
X110249200Y-138715900D03*
X110649200Y-138715900D03*
X111049200Y-138715900D03*
X111449200Y-138715900D03*
X111849200Y-138715900D03*
X112249200Y-138715900D03*
X112649200Y-138715900D03*
X113049200Y-138715900D03*
X113049200Y-137215900D03*
X112649200Y-137215900D03*
X112249200Y-137215900D03*
X111849200Y-137215900D03*
X111449200Y-137215900D03*
X111049200Y-137215900D03*
X110649200Y-137215900D03*
X110249200Y-137215900D03*
D60*
X111649200Y-137965900D03*
%TD*%
D20*
%TO.C,C60*%
X175450800Y-87553800D03*
X173900800Y-87553800D03*
%TD*%
D27*
%TO.C,C71*%
X168122600Y-92366800D03*
X168122600Y-93916800D03*
%TD*%
D31*
%TO.C,R22*%
X173038000Y-86004400D03*
X174688000Y-86004400D03*
%TD*%
D22*
%TO.C,C55*%
X167438600Y-77571600D03*
X164488600Y-77571600D03*
%TD*%
D43*
%TO.C,R28*%
X174396400Y-92367600D03*
X174396400Y-94017600D03*
%TD*%
D33*
%TO.C,C54*%
X169162200Y-77571600D03*
X172112200Y-77571600D03*
%TD*%
D43*
%TO.C,R17*%
X119126000Y-133388600D03*
X119126000Y-135038600D03*
%TD*%
D27*
%TO.C,C47*%
X101720730Y-147853400D03*
X101720730Y-149403400D03*
%TD*%
D17*
%TO.C,R13*%
X122907374Y-72030600D03*
D18*
X122907374Y-70205600D03*
X121357374Y-70205600D03*
D17*
X121357374Y-72030600D03*
%TD*%
D35*
%TO.C,C79*%
X149555200Y-102437302D03*
X149555200Y-105387302D03*
%TD*%
D44*
%TO.C,R25*%
X152958800Y-99543502D03*
X152958800Y-97893502D03*
%TD*%
D33*
%TO.C,C18*%
X124949974Y-80365600D03*
X127899974Y-80365600D03*
%TD*%
D31*
%TO.C,R12*%
X114922800Y-92964000D03*
X116572800Y-92964000D03*
%TD*%
D27*
%TO.C,C78*%
X114382000Y-136987700D03*
X114382000Y-138537700D03*
%TD*%
D19*
%TO.C,C21*%
X153111200Y-76100200D03*
X153111200Y-73150200D03*
%TD*%
D61*
%TO.C,Q2*%
X117296374Y-69230600D03*
X117296374Y-69880600D03*
X117296374Y-70530600D03*
X117296374Y-71180600D03*
D62*
X120221374Y-71180600D03*
X120221374Y-70530600D03*
X120221374Y-69880600D03*
X120221374Y-69230600D03*
D63*
X119146374Y-70205600D03*
%TD*%
D58*
%TO.C,C72*%
X164998400Y-107339502D03*
X164998400Y-110289502D03*
%TD*%
D35*
%TO.C,C36*%
X144484374Y-70127600D03*
X144484374Y-73077600D03*
%TD*%
D22*
%TO.C,C8*%
X115936574Y-71348600D03*
X112986574Y-71348600D03*
%TD*%
D64*
%TO.C,U7*%
X97526730Y-146903400D03*
X97526730Y-147853400D03*
X97526730Y-148803400D03*
X100326730Y-148803400D03*
X100326730Y-147853400D03*
X100326730Y-146903400D03*
D65*
X98926730Y-147853400D03*
%TD*%
D66*
%TO.C,L3*%
X163705800Y-102820102D03*
X157705800Y-102820102D03*
%TD*%
M02*
