M48
; DRILL file {KiCad (6.0.11)} date Tue Aug 29 15:11:42 2023
; FORMAT={-:-/ absolute / metric / decimal}
; #@! TF.CreationDate,2023-08-29T15:11:42+02:00
; #@! TF.GenerationSoftware,Kicad,Pcbnew,(6.0.11)
; #@! TF.FileFunction,Plated,1,4,PTH
FMAT,2
METRIC
; #@! TA.AperFunction,Plated,PTH,ViaDrill
T1C0.400
; #@! TA.AperFunction,Plated,PTH,ComponentDrill
T2C1.000
; #@! TA.AperFunction,Plated,PTH,ComponentDrill
T3C1.020
; #@! TA.AperFunction,Plated,PTH,ComponentDrill
T4C1.100
%
G90
G05
T1
X93.243Y-60.757
X93.243Y-62.154
X93.243Y-63.551
X93.243Y-64.948
X93.243Y-66.345
X93.243Y-67.742
X93.243Y-69.139
X93.243Y-70.536
X93.243Y-71.933
X93.243Y-73.33
X93.243Y-74.727
X93.243Y-76.124
X93.243Y-77.521
X93.243Y-78.918
X93.243Y-80.315
X93.243Y-81.712
X93.243Y-83.109
X93.243Y-84.506
X93.243Y-85.903
X93.243Y-87.3
X93.243Y-88.697
X93.243Y-90.094
X93.243Y-91.491
X93.243Y-92.888
X93.243Y-94.285
X93.243Y-95.682
X93.243Y-97.079
X93.243Y-98.476
X93.243Y-99.873
X93.243Y-101.27
X93.243Y-102.667
X93.243Y-104.064
X93.243Y-105.461
X93.243Y-106.858
X93.243Y-108.255
X93.243Y-109.652
X93.243Y-111.049
X93.243Y-112.446
X93.243Y-113.843
X93.243Y-115.24
X93.243Y-116.637
X93.243Y-118.034
X93.243Y-119.431
X93.243Y-120.828
X93.243Y-122.225
X93.243Y-123.622
X93.243Y-125.019
X93.243Y-126.416
X93.243Y-127.813
X93.243Y-129.21
X93.243Y-130.607
X93.243Y-132.004
X93.243Y-133.401
X93.243Y-134.798
X93.243Y-136.195
X93.243Y-137.592
X93.243Y-138.989
X93.243Y-140.386
X93.243Y-141.783
X93.243Y-143.18
X93.243Y-144.577
X93.243Y-145.974
X93.243Y-147.371
X93.243Y-148.768
X93.243Y-150.165
X93.243Y-151.562
X94.615Y-132.715
X94.64Y-60.42
X94.64Y-152.578
X94.691Y-137.338
X94.844Y-121.26
X94.869Y-142.316
X95.123Y-96.368
X95.199Y-108.763
X95.199Y-112.954
X95.199Y-127.254
X95.225Y-83.49
X95.326Y-104.496
X95.352Y-86.157
X95.555Y-65.024
X95.631Y-91.389
X95.809Y-99.162
X95.961Y-88.595
X96.037Y-152.578
X96.037Y-60.42
X96.799Y-124.739
X97.434Y-133.426
X97.434Y-152.578
X97.434Y-60.42
X97.485Y-101.905
X97.917Y-129.261
X98.199Y-142.415
X98.298Y-141.326
X98.425Y-92.456
X98.43Y-119.34
X98.496Y-135.453
X98.496Y-140.048
X98.831Y-152.578
X98.831Y-60.42
X99.37Y-121.96
X99.466Y-84.582
X99.466Y-90.145
X99.492Y-87.706
X99.517Y-64.643
X99.797Y-113.182
X99.974Y-136.068
X100.0Y-106.68
X100.025Y-131.572
X100.101Y-134.874
X100.178Y-62.382
X100.228Y-152.578
X100.228Y-60.42
X100.259Y-68.649
X100.259Y-77.793
X100.31Y-119.42
X100.33Y-96.139
X100.4Y-117.86
X100.406Y-141.326
X100.563Y-73.932
X100.64Y-123.43
X100.66Y-92.837
X100.97Y-121.18
X101.117Y-76.683
X101.295Y-133.68
X101.625Y-152.578
X101.625Y-60.42
X101.676Y-129.311
X102.133Y-75.489
X102.37Y-124.86
X102.43Y-122.58
X102.794Y-92.837
X102.794Y-139.852
X102.86Y-119.33
X102.88Y-117.86
X102.95Y-127.25
X103.022Y-152.578
X103.022Y-60.42
X103.07Y-120.66
X103.302Y-133.68
X103.41Y-125.92
X103.43Y-135.33
X103.53Y-69.571
X104.073Y-79.07
X104.191Y-102.184
X104.2Y-121.87
X104.292Y-96.291
X104.419Y-60.42
X104.47Y-91.796
X104.572Y-109.626
X104.61Y-127.09
X104.851Y-131.42
X104.94Y-125.18
X105.24Y-117.85
X105.31Y-119.11
X105.41Y-120.56
X105.537Y-137.668
X105.8Y-128.41
X105.816Y-60.42
X105.91Y-135.27
X106.02Y-64.897
X106.02Y-123.78
X106.197Y-149.352
X106.34Y-126.53
X106.45Y-121.7
X106.81Y-133.39
X106.93Y-120.56
X107.06Y-129.59
X107.15Y-124.96
X107.213Y-152.578
X107.213Y-60.42
X107.391Y-106.35
X107.391Y-147.066
X107.417Y-140.818
X107.62Y-144.069
X107.67Y-127.85
X107.91Y-118.44
X107.92Y-123.09
X108.001Y-100.559
X108.026Y-113.436
X108.1Y-121.57
X108.356Y-102.26
X108.4Y-130.99
X108.43Y-126.19
X108.61Y-60.42
X108.61Y-152.578
X108.661Y-150.8
X108.82Y-128.91
X108.87Y-132.58
X108.87Y-135.1
X108.88Y-133.76
X108.89Y-138.608
X109.068Y-145.567
X109.125Y-136.29
X109.18Y-124.57
X109.322Y-143.027
X109.398Y-68.478
X109.449Y-140.284
X109.56Y-127.32
X110.007Y-152.578
X110.007Y-60.42
X110.058Y-93.167
X110.12Y-125.55
X110.15Y-130.35
X110.27Y-147.32
X110.388Y-100.787
X110.51Y-132.49
X110.51Y-134.91
X110.53Y-133.72
X110.55Y-118.45
X110.642Y-96.241
X110.69Y-128.48
X111.04Y-120.45
X111.1Y-126.47
X111.227Y-150.673
X111.328Y-103.048
X111.404Y-152.578
X111.404Y-60.42
X111.43Y-110.109
X111.503Y-84.938
X111.649Y-136.29
X111.67Y-125.05
X111.77Y-129.42
X111.795Y-66.624
X111.795Y-68.986
X111.795Y-71.349
X111.795Y-73.711
X112.03Y-134.59
X112.06Y-130.82
X112.08Y-133.09
X112.16Y-127.46
X112.37Y-61.925
X112.801Y-60.42
X112.801Y-152.578
X112.988Y-65.1
X113.09Y-126.4
X113.18Y-128.52
X113.208Y-101.016
X113.23Y-120.55
X113.24Y-118.47
X113.487Y-92.964
X113.513Y-105.613
X113.57Y-130.85
X113.57Y-134.04
X113.58Y-132.63
X114.148Y-140.411
X114.148Y-142.265
X114.148Y-150.8
X114.182Y-66.624
X114.182Y-68.986
X114.182Y-71.349
X114.182Y-73.711
X114.198Y-152.578
X114.198Y-60.42
X114.224Y-144.374
X114.382Y-135.45
X114.43Y-128.06
X114.58Y-125.25
X114.766Y-87.401
X114.79Y-122.43
X115.113Y-146.253
X115.519Y-108.229
X115.595Y-152.578
X115.595Y-60.42
X115.65Y-118.42
X115.73Y-120.53
X115.732Y-77.724
X115.732Y-78.715
X115.734Y-79.705
X115.734Y-80.696
X115.734Y-81.686
X116.103Y-101.346
X116.24Y-143.18
X116.32Y-136.75
X116.408Y-62.128
X116.535Y-141.351
X116.57Y-74.955
X116.771Y-77.724
X116.771Y-78.715
X116.773Y-79.705
X116.773Y-80.696
X116.773Y-81.686
X116.789Y-113.767
X116.916Y-150.749
X116.96Y-121.93
X116.992Y-152.578
X116.992Y-60.42
X117.018Y-148.285
X117.043Y-144.983
X117.678Y-92.964
X117.79Y-125.3
X117.805Y-66.065
X117.814Y-77.724
X117.814Y-78.715
X117.816Y-79.705
X117.816Y-80.696
X117.816Y-81.686
X117.856Y-103.759
X118.012Y-84.531
X118.059Y-96.139
X118.14Y-118.4
X118.186Y-72.466
X118.339Y-100.279
X118.364Y-73.66
X118.389Y-60.42
X118.415Y-90.373
X118.8Y-120.95
X118.847Y-130.353
X118.95Y-138.63
X119.295Y-84.55
X119.532Y-72.466
X119.634Y-109.322
X119.786Y-60.42
X119.939Y-64.033
X120.142Y-105.689
X120.396Y-129.997
X120.599Y-126.721
X120.667Y-80.682
X120.675Y-66.675
X120.786Y-79.273
X120.845Y-84.55
X120.929Y-100.889
X121.09Y-118.41
X121.183Y-152.578
X121.183Y-60.42
X121.59Y-144.501
X121.615Y-93.167
X121.74Y-141.58
X121.895Y-149.047
X121.92Y-84.39
X121.92Y-130.454
X121.94Y-120.49
X121.945Y-107.112
X122.58Y-152.578
X122.58Y-60.42
X122.657Y-66.015
X122.7Y-77.05
X122.733Y-95.91
X122.809Y-90.424
X123.012Y-127.483
X123.165Y-112.192
X123.266Y-61.773
X123.368Y-135.331
X123.41Y-82.89
X123.47Y-118.43
X123.52Y-101.321
X123.63Y-124.46
X123.977Y-152.578
X123.977Y-60.42
X124.054Y-139.548
X124.231Y-127.711
X124.266Y-75.971
X124.358Y-109.347
X124.66Y-78.765
X124.723Y-85.065
X124.723Y-86.462
X124.723Y-87.859
X124.723Y-89.256
X124.723Y-90.653
X124.723Y-92.05
X124.749Y-65.964
X124.749Y-68.351
X124.765Y-103.759
X124.95Y-81.89
X125.22Y-144.8
X125.24Y-119.35
X125.374Y-152.578
X125.374Y-60.42
X125.451Y-134.899
X125.58Y-126.46
X125.714Y-93.396
X125.8Y-118.41
X125.832Y-64.287
X125.94Y-78.66
X126.222Y-73.304
X126.222Y-75.971
X126.374Y-80.366
X126.543Y-127.61
X126.68Y-81.36
X126.746Y-102.286
X126.771Y-152.578
X126.771Y-60.42
X126.797Y-146.456
X127.05Y-125.1
X127.111Y-65.964
X127.111Y-68.351
X127.27Y-78.66
X127.457Y-96.876
X127.466Y-93.802
X127.94Y-132.359
X128.168Y-152.578
X128.168Y-60.42
X128.38Y-78.65
X128.397Y-61.595
X128.584Y-73.304
X128.584Y-75.971
X128.676Y-130.048
X128.803Y-109.347
X128.863Y-93.802
X129.05Y-80.97
X129.159Y-133.731
X129.25Y-79.9
X129.31Y-78.88
X129.473Y-65.964
X129.473Y-68.351
X129.565Y-152.578
X129.565Y-60.42
X129.642Y-140.157
X129.743Y-103.937
X129.81Y-120.68
X130.099Y-113.64
X130.226Y-128.118
X130.26Y-93.802
X130.45Y-130.43
X130.556Y-64.389
X130.57Y-132.27
X130.79Y-129.27
X130.946Y-73.304
X130.946Y-75.971
X130.96Y-121.53
X130.962Y-152.578
X130.962Y-60.42
X131.04Y-111.81
X131.24Y-123.45
X131.267Y-96.85
X131.445Y-126.111
X131.657Y-93.802
X131.75Y-128.397
X131.835Y-65.964
X131.835Y-68.351
X131.85Y-120.59
X132.32Y-111.9
X132.359Y-60.42
X132.359Y-152.578
X132.71Y-107.66
X132.766Y-140.64
X132.81Y-110.51
X132.842Y-61.671
X132.93Y-135.0
X133.054Y-93.802
X133.308Y-73.304
X133.308Y-75.971
X133.375Y-133.771
X133.756Y-152.578
X133.756Y-102.819
X133.756Y-60.42
X133.858Y-127.835
X134.061Y-122.809
X134.087Y-124.206
X134.197Y-65.964
X134.197Y-68.351
X134.2Y-110.74
X134.451Y-93.802
X134.823Y-132.207
X134.823Y-135.255
X134.925Y-146.888
X135.077Y-129.896
X135.119Y-76.048
X135.153Y-60.42
X135.153Y-139.421
X135.153Y-152.578
X135.18Y-100.08
X135.357Y-64.033
X135.44Y-109.62
X135.46Y-118.25
X135.48Y-121.48
X135.484Y-96.876
X135.59Y-120.4
X135.7Y-115.12
X135.76Y-123.46
X135.848Y-93.802
X136.443Y-129.737
X136.474Y-103.784
X136.55Y-152.578
X136.55Y-60.42
X136.56Y-65.964
X136.56Y-68.351
X136.728Y-128.626
X136.75Y-111.94
X136.804Y-135.814
X136.804Y-137.719
X137.024Y-109.687
X137.245Y-93.802
X137.74Y-118.27
X137.897Y-76.048
X137.947Y-152.578
X137.947Y-60.42
X138.045Y-125.935
X138.167Y-109.687
X138.24Y-127.5
X138.252Y-61.62
X138.37Y-108.62
X138.642Y-93.802
X138.862Y-130.556
X138.922Y-65.964
X138.922Y-68.351
X139.192Y-106.426
X139.344Y-152.578
X139.344Y-60.42
X139.43Y-72.796
X139.76Y-115.09
X139.82Y-132.68
X139.903Y-100.914
X140.005Y-122.555
X140.039Y-93.802
X140.056Y-63.729
X140.081Y-97.028
X140.183Y-139.675
X140.4Y-128.0
X140.411Y-146.228
X140.462Y-125.044
X140.741Y-152.578
X140.741Y-60.42
X141.0Y-104.26
X141.046Y-120.574
X141.05Y-114.84
X141.284Y-65.964
X141.284Y-68.351
X141.436Y-93.802
X141.478Y-118.745
X142.062Y-135.534
X142.113Y-121.107
X142.138Y-60.42
X142.138Y-152.578
X142.545Y-108.763
X142.56Y-128.56
X142.723Y-61.697
X142.78Y-117.46
X142.833Y-67.158
X142.833Y-93.802
X143.18Y-134.595
X143.231Y-119.075
X143.535Y-152.578
X143.535Y-60.42
X143.688Y-121.564
X143.789Y-64.846
X143.897Y-116.56
X144.23Y-93.802
X144.45Y-128.12
X144.484Y-74.27
X144.755Y-135.611
X144.78Y-98.679
X144.78Y-101.956
X144.78Y-132.461
X144.882Y-106.07
X144.932Y-152.578
X144.932Y-60.42
X145.04Y-116.56
X145.243Y-115.493
X145.364Y-124.917
X145.364Y-127.0
X145.39Y-139.776
X145.627Y-93.802
X145.923Y-96.774
X145.923Y-103.886
X146.01Y-129.71
X146.152Y-146.558
X146.329Y-60.42
X146.329Y-152.578
X146.456Y-125.943
X146.583Y-135.865
X146.847Y-74.27
X146.99Y-109.042
X147.0Y-127.61
X147.024Y-93.802
X147.066Y-98.679
X147.295Y-62.23
X147.65Y-133.934
X147.726Y-152.578
X147.726Y-60.42
X147.77Y-129.0
X147.879Y-116.891
X148.031Y-105.386
X148.031Y-119.38
X148.371Y-73.076
X148.421Y-93.802
X148.539Y-139.497
X148.565Y-65.786
X148.641Y-121.996
X148.793Y-135.865
X149.123Y-152.578
X149.123Y-60.42
X149.2Y-68.047
X149.428Y-128.803
X149.555Y-104.192
X149.555Y-108.331
X149.628Y-74.32
X149.885Y-130.378
X149.996Y-93.701
X150.038Y-124.206
X150.063Y-133.985
X150.241Y-110.693
X150.241Y-114.859
X150.266Y-101.042
X150.52Y-60.42
X150.52Y-152.578
X150.698Y-125.943
X150.8Y-106.91
X151.028Y-94.056
X151.028Y-95.453
X151.038Y-80.086
X151.038Y-81.483
X151.038Y-82.88
X151.038Y-84.277
X151.038Y-85.674
X151.038Y-87.071
X151.038Y-88.468
X151.038Y-89.865
X151.038Y-91.262
X151.038Y-92.659
X151.178Y-74.32
X151.232Y-135.865
X151.257Y-101.042
X151.333Y-97.003
X151.486Y-62.052
X151.917Y-152.578
X151.917Y-60.42
X151.917Y-68.047
X151.917Y-104.192
X152.07Y-110.846
X152.121Y-145.796
X152.222Y-101.042
X152.298Y-65.481
X152.358Y-77.216
X152.629Y-133.985
X152.705Y-87.173
X152.705Y-89.306
X152.806Y-126.39
X152.984Y-118.821
X153.06Y-108.129
X153.06Y-140.589
X153.106Y-78.867
X153.111Y-72.009
X153.213Y-115.138
X153.314Y-152.578
X153.314Y-60.42
X153.416Y-74.295
X153.619Y-135.865
X153.695Y-103.354
X154.051Y-88.24
X154.051Y-107.113
X154.102Y-97.893
X154.153Y-109.551
X154.457Y-100.152
X154.483Y-122.961
X154.686Y-68.047
X154.711Y-152.578
X154.711Y-60.42
X154.711Y-101.793
X154.889Y-65.532
X155.092Y-87.173
X155.092Y-89.306
X155.169Y-62.205
X155.194Y-134.036
X155.28Y-78.867
X155.473Y-72.009
X155.473Y-74.295
X155.499Y-129.108
X155.6Y-97.663
X155.711Y-103.305
X155.854Y-99.187
X155.905Y-110.161
X156.108Y-152.578
X156.108Y-60.42
X156.134Y-137.998
X156.261Y-135.89
X156.439Y-88.24
X156.693Y-101.321
X156.794Y-77.445
X156.972Y-73.152
X156.997Y-97.663
X157.465Y-78.867
X157.48Y-87.173
X157.48Y-89.306
X157.505Y-152.578
X157.505Y-60.42
X157.582Y-65.608
X157.607Y-139.725
X157.759Y-133.985
X157.886Y-146.507
X158.013Y-141.478
X158.394Y-97.663
X158.725Y-109.094
X158.725Y-111.507
X158.725Y-143.383
X158.826Y-88.24
X158.902Y-152.578
X158.902Y-60.42
X158.928Y-135.458
X159.156Y-114.986
X159.309Y-118.796
X159.36Y-127.406
X159.385Y-77.013
X159.512Y-122.987
X159.588Y-137.008
X159.649Y-78.867
X159.791Y-97.663
X159.791Y-139.471
X159.868Y-87.173
X159.868Y-89.306
X160.02Y-141.402
X160.299Y-60.42
X160.299Y-152.578
X160.731Y-99.136
X160.731Y-101.168
X160.731Y-102.82
X160.757Y-110.288
X160.833Y-74.701
X161.138Y-65.354
X161.214Y-88.24
X161.341Y-97.612
X161.569Y-79.045
X161.696Y-152.578
X161.696Y-60.42
X162.128Y-142.723
X162.458Y-97.028
X162.535Y-75.743
X163.068Y-110.287
X163.093Y-152.578
X163.093Y-60.42
X163.22Y-77.572
X163.246Y-79.934
X163.601Y-93.878
X163.652Y-74.244
X163.652Y-82.728
X163.754Y-146.228
X164.16Y-91.643
X164.313Y-85.268
X164.363Y-83.871
X164.489Y-76.048
X164.49Y-152.578
X164.49Y-60.42
X164.49Y-81.432
X164.821Y-97.028
X164.998Y-109.144
X164.998Y-111.43
X165.506Y-115.164
X165.557Y-119.482
X165.557Y-123.825
X165.684Y-77.572
X165.684Y-79.934
X165.887Y-152.578
X165.887Y-60.42
X165.964Y-128.549
X165.989Y-73.33
X166.218Y-75.362
X166.345Y-65.1
X166.675Y-140.538
X166.802Y-86.081
X166.929Y-110.287
X167.056Y-61.951
X167.259Y-68.504
X167.284Y-152.578
X167.284Y-60.42
X167.93Y-91.237
X168.123Y-95.275
X168.25Y-87.63
X168.25Y-88.873
X168.681Y-152.578
X168.681Y-60.42
X168.935Y-82.779
X169.266Y-97.841
X169.342Y-146.456
X169.367Y-87.63
X169.367Y-88.873
X169.617Y-91.237
X169.621Y-85.141
X169.824Y-95.275
X170.028Y-71.222
X170.028Y-133.477
X170.078Y-152.578
X170.078Y-60.42
X170.231Y-81.509
X170.358Y-64.999
X170.358Y-68.326
X170.358Y-136.906
X170.536Y-87.63
X170.536Y-88.873
X170.663Y-115.113
X170.917Y-77.572
X170.917Y-79.934
X170.942Y-119.685
X170.967Y-124.485
X171.044Y-110.033
X171.094Y-129.21
X171.117Y-91.237
X171.171Y-81.509
X171.374Y-73.635
X171.475Y-152.578
X171.475Y-60.42
X171.628Y-98.019
X172.11Y-81.509
X172.112Y-76.022
X172.796Y-103.581
X172.796Y-106.909
X172.796Y-140.208
X172.847Y-87.732
X172.847Y-100.432
X172.872Y-60.42
X172.872Y-62.027
X172.872Y-152.578
X173.089Y-82.779
X173.38Y-77.572
X173.38Y-79.934
X173.457Y-146.355
X174.219Y-65.913
X174.269Y-60.42
X174.269Y-152.578
X174.371Y-70.282
X174.574Y-74.6
X174.574Y-81.864
X174.981Y-102.362
X175.59Y-78.816
X175.666Y-152.578
X175.666Y-60.42
X175.819Y-95.91
X175.946Y-98.552
X176.098Y-115.189
X176.149Y-119.659
X176.225Y-135.661
X176.301Y-109.957
X176.378Y-124.714
X176.784Y-106.197
X176.835Y-129.413
X176.936Y-138.811
X177.063Y-152.578
X177.063Y-60.42
X177.19Y-133.223
X177.317Y-80.899
X177.368Y-68.707
X177.47Y-142.977
X177.597Y-84.328
X177.648Y-73.508
X177.851Y-77.368
X177.952Y-101.27
X178.41Y-95.682
X178.46Y-152.578
X178.46Y-60.42
X179.578Y-60.42
X179.578Y-61.824
X179.578Y-63.221
X179.578Y-64.618
X179.578Y-66.015
X179.578Y-67.412
X179.578Y-68.809
X179.578Y-70.206
X179.578Y-71.603
X179.578Y-73.0
X179.578Y-74.397
X179.578Y-75.794
X179.578Y-77.191
X179.578Y-78.588
X179.578Y-79.985
X179.578Y-81.382
X179.578Y-82.779
X179.578Y-84.176
X179.578Y-85.573
X179.578Y-86.97
X179.578Y-88.367
X179.578Y-89.764
X179.578Y-91.161
X179.578Y-92.558
X179.578Y-93.955
X179.578Y-95.352
X179.578Y-96.749
X179.578Y-98.146
X179.578Y-99.543
X179.578Y-100.94
X179.578Y-102.337
X179.578Y-103.734
X179.578Y-105.131
X179.578Y-106.528
X179.578Y-107.925
X179.578Y-109.322
X179.578Y-110.719
X179.578Y-112.116
X179.578Y-113.513
X179.578Y-114.91
X179.578Y-116.307
X179.578Y-117.704
X179.578Y-119.101
X179.578Y-120.498
X179.578Y-121.895
X179.578Y-123.292
X179.578Y-124.689
X179.578Y-126.086
X179.578Y-127.483
X179.578Y-128.88
X179.578Y-130.277
X179.578Y-131.674
X179.578Y-133.071
X179.578Y-134.468
X179.578Y-135.865
X179.578Y-137.262
X179.578Y-138.659
X179.578Y-140.056
X179.578Y-141.453
X179.578Y-142.85
X179.578Y-144.247
X179.578Y-145.644
X179.578Y-147.041
X179.578Y-148.438
X179.578Y-149.835
X179.578Y-151.232
T2
X126.107Y-143.18
X128.607Y-138.18
X131.107Y-143.18
X133.607Y-138.18
X136.107Y-143.18
X138.607Y-138.18
X141.107Y-143.18
X143.607Y-138.18
X146.107Y-143.18
X146.282Y-133.214
X148.822Y-133.214
X150.343Y-143.18
X151.362Y-133.214
X152.843Y-138.18
X153.902Y-133.214
X155.343Y-143.18
X156.442Y-133.214
X157.843Y-138.18
X158.982Y-133.214
X160.343Y-143.18
X161.522Y-133.214
X162.843Y-138.18
X165.343Y-143.18
X167.843Y-138.18
X170.343Y-143.18
T3
X99.086Y-98.679
X99.086Y-116.459
X101.626Y-98.679
X101.626Y-116.459
X104.166Y-98.679
X104.166Y-116.459
X106.706Y-98.679
X106.706Y-116.459
X109.246Y-98.679
X109.246Y-116.459
X111.786Y-98.679
X111.786Y-116.459
X114.326Y-98.679
X114.326Y-116.459
X116.866Y-98.679
X116.866Y-116.459
X119.406Y-98.679
X119.406Y-116.459
X121.946Y-98.679
X121.946Y-116.459
X124.486Y-98.679
X124.486Y-116.459
X127.026Y-98.679
X127.026Y-116.459
X129.566Y-98.679
X129.566Y-116.459
X132.106Y-98.679
X132.106Y-116.459
T4
X104.066Y-67.147
X104.066Y-72.147
X107.566Y-67.147
X107.566Y-72.147
X159.515Y-67.147
X159.515Y-72.147
X163.015Y-67.147
X163.015Y-72.147
T0
M30
